<svg width="236" height="68" viewBox="0 0 236 68" fill="none" xmlns="http://www.w3.org/2000/svg">
<path d="M111.793 46.2256C111.795 46.6501 111.702 47.0696 111.519 47.453C111.337 47.8365 111.07 48.174 110.739 48.4406C110.074 49.0326 109.212 49.3572 108.32 49.3515C107.716 49.3521 107.124 49.1842 106.61 48.8666C106.046 48.5073 105.609 47.9808 105.361 47.361L101.944 39.7473H81.901L78.481 47.361C78.2307 47.9805 77.793 48.5068 77.229 48.8666C76.6977 49.1896 76.0862 49.3576 75.464 49.3515C74.5825 49.348 73.7325 49.0242 73.073 48.4406C72.7355 48.1781 72.4626 47.842 72.2752 47.4581C72.0878 47.0742 71.991 46.6526 71.992 46.2256C71.9962 45.7143 72.1119 45.2101 72.331 44.7479L88.048 11.0572C88.3665 10.3239 88.9168 9.71488 89.615 9.32318C90.3006 8.93346 91.076 8.72852 91.865 8.72852C92.654 8.72852 93.4295 8.93346 94.115 9.32318C94.8139 9.714 95.3645 10.3233 95.682 11.0572L111.457 44.7479C111.676 45.2099 111.791 45.7144 111.793 46.2256ZM84.409 34.0691H99.439L91.927 17.1934L84.409 34.0691Z" fill="#00DD80"/>
<path d="M140.265 9.6923C140.601 9.99007 140.868 10.3583 141.045 10.7707C141.223 11.1831 141.307 11.6294 141.291 12.0779V46.055C141.312 46.5069 141.237 46.9583 141.07 47.379C140.903 47.7998 140.648 48.1803 140.323 48.4954C139.6 49.0846 138.695 49.4064 137.761 49.4064C136.827 49.4064 135.922 49.0846 135.199 48.4954C134.872 48.181 134.617 47.8006 134.45 47.3797C134.282 46.9589 134.207 46.5072 134.228 46.055V44.6352C133.407 46.1748 132.149 47.439 130.612 48.2699C128.961 49.1594 127.108 49.6085 125.232 49.574C122.966 49.6097 120.74 48.9781 118.832 47.7581C116.908 46.4967 115.386 44.7132 114.444 42.6177C113.36 40.2169 112.825 37.6057 112.877 34.973C112.819 32.3685 113.355 29.785 114.444 27.4172C115.374 25.354 116.895 23.6114 118.815 22.4089C120.735 21.2064 122.97 20.5977 125.236 20.6595C127.097 20.6242 128.937 21.0536 130.589 21.9086C132.107 22.7038 133.355 23.9292 134.177 25.4307V11.9682C134.16 11.5397 134.235 11.1126 134.397 10.7154C134.559 10.3181 134.804 9.95982 135.115 9.66437C135.813 9.05256 136.722 8.73649 137.65 8.78337C138.605 8.7474 139.539 9.07195 140.265 9.6923ZM132.377 41.7377C133.611 40.1839 134.228 37.9679 134.228 35.0898C134.228 32.2116 133.611 30.0046 132.377 28.4688C131.751 27.7038 130.953 27.0969 130.048 26.6972C129.142 26.2974 128.156 26.1161 127.167 26.168C126.169 26.1139 125.171 26.2909 124.252 26.6852C123.334 27.0795 122.519 27.6803 121.872 28.4408C120.617 29.9581 119.99 32.1355 119.991 34.973C119.844 37.3558 120.506 39.7185 121.872 41.6789C122.527 42.4227 123.332 43.0196 124.234 43.4304C125.137 43.8411 126.117 44.0563 127.109 44.0618C128.101 44.0672 129.083 43.8628 129.99 43.4621C130.897 43.0613 131.709 42.4733 132.372 41.7367L132.377 41.7377Z" fill="#00DD80"/>
<path d="M154.951 47.2803C152.288 45.7266 150.148 43.4177 148.804 40.6473C147.383 37.4723 146.647 34.0349 146.642 30.5577C146.638 27.0806 147.367 23.6413 148.78 20.463C150.118 17.6966 152.259 15.3953 154.924 13.858C157.833 12.337 161.069 11.5425 164.354 11.5425C167.638 11.5425 170.874 12.337 173.783 13.858C176.438 15.4009 178.569 17.7013 179.903 20.463C181.317 23.6413 182.045 27.0807 182.041 30.558C182.036 34.0354 181.299 37.4728 179.876 40.6473C178.536 43.4194 176.396 45.729 173.732 47.2803C170.837 48.8011 167.614 49.5958 164.342 49.5958C161.07 49.5958 157.847 48.8011 154.952 47.2803H154.951ZM172.36 40.6473C174.277 38.298 175.236 34.9293 175.237 30.5412C175.238 26.1531 174.279 22.7941 172.36 20.464C171.338 19.3601 170.098 18.4791 168.718 17.8766C167.339 17.2741 165.849 16.963 164.343 16.963C162.836 16.963 161.346 17.2741 159.967 17.8766C158.587 18.4791 157.347 19.3601 156.325 20.464C154.408 22.8007 153.449 26.1598 153.448 30.5412C153.447 34.9226 154.406 38.2913 156.325 40.6473C157.342 41.7589 158.581 42.6468 159.961 43.2543C161.342 43.8618 162.834 44.1755 164.343 44.1755C165.851 44.1755 167.343 43.8618 168.724 43.2543C170.104 42.6468 171.343 41.7589 172.36 40.6473Z" fill="white"/>
<path d="M208.888 22.4765C210.809 23.7408 212.33 25.5248 213.273 27.6198C214.356 30.0198 214.891 32.6299 214.84 35.2615C214.898 37.8661 214.362 40.4498 213.273 42.8174C212.343 44.8806 210.822 46.6231 208.902 47.8256C206.982 49.0281 204.747 49.6368 202.481 49.5751C200.638 49.6076 198.816 49.1792 197.181 48.3289C195.676 47.5424 194.43 46.3396 193.593 44.8648V56.4515C193.614 56.8865 193.539 57.3209 193.372 57.7233C193.205 58.1258 192.951 58.4864 192.628 58.7792C191.91 59.3742 190.995 59.6796 190.063 59.6353C189.115 59.6758 188.187 59.3495 187.474 58.7244C187.144 58.4229 186.883 58.0534 186.711 57.6414C186.538 57.2295 186.457 56.785 186.474 56.3388V24.1247C186.452 23.6747 186.525 23.225 186.686 22.8043C186.848 22.3837 187.096 22.0012 187.414 21.6813C187.755 21.3698 188.155 21.129 188.59 20.9727C189.025 20.8163 189.487 20.7475 189.949 20.7703C190.89 20.728 191.809 21.055 192.511 21.6813C192.837 21.9969 193.091 22.378 193.258 22.7993C193.425 23.2205 193.5 23.6723 193.479 24.1247V25.5445C194.297 24.0092 195.556 22.7528 197.095 21.9367C198.752 21.0651 200.603 20.6261 202.476 20.6606C204.746 20.6242 206.976 21.2557 208.888 22.4765ZM205.844 41.7658C207.204 39.8786 207.867 37.5802 207.722 35.2605C207.867 32.8793 207.205 30.5187 205.844 28.5577C205.19 27.8121 204.384 27.2136 203.481 26.8018C202.577 26.39 201.596 26.1742 200.603 26.1688C199.61 26.1633 198.627 26.3682 197.719 26.7701C196.811 27.1719 195.999 27.7615 195.336 28.4998C194.102 30.0536 193.485 32.2696 193.485 35.1477C193.338 37.49 193.99 39.813 195.336 41.7378C196 42.4687 196.81 43.0532 197.714 43.454C198.618 43.8548 199.595 44.0632 200.584 44.0657C201.573 44.0682 202.552 43.8649 203.457 43.4687C204.363 43.0725 205.176 42.4922 205.844 41.7648V41.7658Z" fill="white"/>
<path d="M235.564 46.7374C235.582 47.1503 235.489 47.5605 235.294 47.925C235.099 48.2896 234.809 48.5952 234.455 48.8097C233.489 49.3304 232.385 49.5396 231.295 49.4084L229.756 49.2926C223.38 48.8416 220.192 45.4344 220.192 39.0708V26.6808H217.343C216.499 26.7375 215.662 26.4959 214.979 25.9984C214.451 25.4708 214.155 24.7559 214.155 24.0104C214.155 23.2649 214.451 22.5499 214.979 22.0224C215.663 21.5266 216.499 21.2852 217.343 21.3399H220.192V16.1148C220.171 15.6621 220.245 15.2101 220.412 14.7884C220.578 14.3667 220.832 13.985 221.157 13.6683C221.879 13.0379 222.819 12.7132 223.777 12.7634C224.717 12.7188 225.637 13.0437 226.339 13.6683C226.665 13.9842 226.921 14.3656 227.088 14.7874C227.256 15.2092 227.331 15.6616 227.31 16.1148V21.3379H232.147C232.991 21.2827 233.827 21.5242 234.511 22.0204C234.773 22.2811 234.981 22.591 235.123 22.9321C235.265 23.2733 235.338 23.639 235.338 24.0084C235.338 24.3778 235.265 24.7435 235.123 25.0847C234.981 25.4258 234.773 25.7356 234.511 25.9964C233.828 26.4939 232.991 26.7355 232.147 26.6788H227.31V39.5756C227.31 42.3786 228.6 43.8752 231.179 44.0655L232.718 44.1782C234.617 44.291 235.564 45.147 235.564 46.7374Z" fill="white"/>
<path d="M32.264 0.669922C14.447 0.669922 0 15.6739 0 34.182C0 52.6901 14.447 67.6911 32.264 67.6911C50.081 67.6911 64.532 52.6871 64.532 34.182C64.532 15.6769 50.085 0.669922 32.264 0.669922ZM52.956 34.0403L35.043 51.9169C33.2519 53.6672 30.8446 54.6475 28.3375 54.6475C25.8304 54.6475 23.4231 53.6672 21.632 51.9169L11.576 41.8796C9.81802 40.1256 8.83038 37.7466 8.83038 35.2661C8.83038 32.7855 9.81802 30.4066 11.576 28.6525C13.334 26.8985 15.7183 25.9131 18.2045 25.9131C20.6907 25.9131 23.075 26.8985 24.833 28.6525L28.333 32.1446L39.694 20.8093C40.5645 19.9408 41.5979 19.2519 42.7352 18.7819C43.8725 18.3118 45.0915 18.0699 46.3225 18.0699C47.5535 18.0699 48.7725 18.3118 49.9098 18.7819C51.0471 19.2519 52.0805 19.9408 52.951 20.8093C53.8215 21.6778 54.512 22.7089 54.983 23.8436C55.4541 24.9784 55.6966 26.1946 55.6966 27.4228C55.6966 28.6511 55.4541 29.8673 54.983 31.002C54.512 32.1368 53.8215 33.1679 52.951 34.0364L52.956 34.0403Z" fill="#00DD80"/>
<path d="M51.294 22.7091L51.06 22.4756C50.4114 21.8281 49.6413 21.3144 48.7937 20.9639C47.946 20.6135 47.0375 20.4331 46.12 20.4331C45.2025 20.4331 44.2939 20.6135 43.4463 20.9639C42.5987 21.3144 41.8286 21.8281 41.18 22.4756L29.911 33.7191L23.137 40.4778C22.488 41.1249 21.9732 41.8933 21.6219 42.739C21.2706 43.5847 21.0898 44.4912 21.0898 45.4067C21.0898 46.3221 21.2706 47.2286 21.6219 48.0743C21.9732 48.92 22.488 49.6884 23.137 50.3355L23.371 50.569C24.6818 51.875 26.4585 52.6086 28.311 52.6086C30.1635 52.6086 31.9402 51.875 33.251 50.569L37.542 46.2877L51.294 32.5668C51.9429 31.9196 52.4576 31.1512 52.8088 30.3055C53.1599 29.4598 53.3407 28.5533 53.3407 27.6379C53.3407 26.7225 53.1599 25.816 52.8088 24.9703C52.4576 24.1246 51.9429 23.3563 51.294 22.7091ZM28.337 50.8873C27.245 50.8869 26.1777 50.5634 25.27 49.9578C24.3623 49.3522 23.655 48.4916 23.2375 47.4849C22.82 46.4782 22.711 45.3706 22.9245 44.3021C23.1379 43.2336 23.6641 42.2523 24.4365 41.4822C25.2089 40.7121 26.1928 40.1878 27.2639 39.9757C28.3349 39.7635 29.4449 39.873 30.4536 40.2903C31.4623 40.7076 32.3243 41.4139 32.9306 42.32C33.537 43.2261 33.8604 44.2912 33.86 45.3807C33.8592 46.8415 33.2769 48.2422 32.2411 49.2746C31.2054 50.3071 29.8011 50.8868 28.337 50.8863V50.8873Z" fill="#00DD80"/>
</svg>
